<svg height="256px" width="256px" version="1.1" id="Layer_1" xmlns="http://www.w3.org/2000/svg" xmlns:xlink="http://www.w3.org/1999/xlink" viewBox="0 0 512.00 512.00" xml:space="preserve" fill="#000000" stroke="#000000" stroke-width="0.00512"><g id="SVGRepo_bgCarrier" stroke-width="0"></g><g id="SVGRepo_tracerCarrier" stroke-linecap="round" stroke-linejoin="round" stroke="#CCCCCC" stroke-width="17.408"></g><g id="SVGRepo_iconCarrier"> <circle style="fill:#FFEDB5;" cx="256" cy="256" r="256"></circle> <path style="fill:#FEE187;" d="M291.476,509.542c100.528-13.938,182.386-86.24,210.258-181.598l-157.05-157.05l-3.365,3.781 l-57.737-57.737l-0.031,0.269l-20.894-20.894l-6.563,30.744h26.345l-6.615,58.551l-42.091-42.091l-36.7,18.42l73.195,73.195 l-4.97,43.992l-46.58-50.655l-69.385,18.696l44.618,43.504l-27.41,7.177l73.39,73.39l-56.451,30.272L291.476,509.542z"></path> <path style="fill:#477F3C;" d="M256.095,381.295L256.095,381.295c-19.222,0-34.802-15.582-34.802-34.802V137.678 c0-19.222,15.582-34.802,34.802-34.802l0,0c19.222,0,34.802,15.582,34.802,34.802v208.815 C290.897,365.715,275.316,381.295,256.095,381.295z"></path> <path style="fill:#2E5E24;" d="M256.095,102.876c-0.226,0-0.445,0.029-0.669,0.034v278.352c0.224,0.003,0.443,0.034,0.669,0.034 c19.222,0,34.802-15.582,34.802-34.802V137.678C290.897,118.458,275.316,102.876,256.095,102.876z"></path> <path style="fill:#B54324;" d="M205.465,412.039h101.257c15.632,0,28.305-12.672,28.305-28.305v-97.989H177.161v97.989 C177.162,399.367,189.835,412.039,205.465,412.039z"></path> <path style="fill:#930000;" d="M255.426,285.746v126.293h51.298c15.632,0,28.305-12.672,28.305-28.305v-97.989H255.426z"></path> <path style="fill:#D35933;" d="M177.161,302.011h157.867c8.72,0,15.786-7.068,15.786-15.786l0,0c0-8.72-7.068-15.786-15.786-15.786 H177.161c-8.72,0-15.786,7.068-15.786,15.786l0,0C161.375,294.943,168.443,302.011,177.161,302.011z"></path> <path style="fill:#B54324;" d="M335.029,270.438h-79.603v31.573h79.603c8.718,0,15.786-7.068,15.786-15.788 C350.815,277.506,343.747,270.438,335.029,270.438z"></path> <path style="fill:#6CAF5F;" d="M235.029,230.493L235.029,230.493c0,12.814-10.388,23.202-23.2,23.202h-46.404 c-12.814,0-23.202-10.388-23.2-23.202l0,0c0-12.814,10.388-23.202,23.2-23.202h46.404 C224.64,207.291,235.029,217.679,235.029,230.493z"></path> <path style="fill:#477F3C;" d="M348.806,184.089L348.806,184.089c0,12.814-10.388,23.202-23.2,23.202h-46.404 c-12.814,0-23.202-10.388-23.2-23.202l0,0c0-12.814,10.388-23.202,23.2-23.202h46.404 C338.418,160.889,348.806,171.275,348.806,184.089z"></path> <g> <circle style="fill:#FF314F;" cx="229.848" cy="98.188" r="15.469"></circle> <circle style="fill:#FF314F;" cx="229.848" cy="160.065" r="15.469"></circle> <circle style="fill:#FF314F;" cx="260.775" cy="129.124" r="15.467"></circle> <circle style="fill:#FF314F;" cx="198.904" cy="129.124" r="15.467"></circle> </g> <g> <circle style="fill:#FF6262;" cx="251.725" cy="150.997" r="15.469"></circle> <circle style="fill:#FF6262;" cx="207.972" cy="107.244" r="15.469"></circle> <circle style="fill:#FF6262;" cx="207.972" cy="150.997" r="15.467"></circle> <circle style="fill:#FF6262;" cx="251.725" cy="107.244" r="15.467"></circle> </g> <circle style="fill:#FFC61B;" cx="229.848" cy="129.124" r="20.623"></circle> <path style="fill:#EAA22F;" d="M229.845,108.501c11.39,0,20.623,9.233,20.623,20.623c0,11.39-9.233,20.623-20.623,20.623V108.501z"></path> </g></svg>